<svg xmlns="http://www.w3.org/2000/svg" version="1.1" xmlns:xlink="http://www.w3.org/1999/xlink" xmlns:svgjs="http://svgjs.dev/svgjs" width="1000" height="623" viewBox="0 0 1000 623"><g transform="matrix(1,0,0,1,-0.6060605778796457,0.2522267206477409)"><svg viewBox="0 0 396 247" data-background-color="#1b4571" preserveAspectRatio="xMidYMid meet" height="623" width="1000" xmlns="http://www.w3.org/2000/svg" xmlns:xlink="http://www.w3.org/1999/xlink"><g id="tight-bounds" transform="matrix(1,0,0,1,0.24000001115967962,-0.09999999999999432)"><svg viewBox="0 0 395.52 247.2" height="247.2" width="395.52"><g><svg></svg></g><g><svg viewBox="0 0 395.52 247.2" height="247.2" width="395.52"><g><g><path xmlns="http://www.w3.org/2000/svg" d="M120.349 223.708l-10.757-41.001h-55.136l-10.701 41.001h-42.746l21.352-68.323h119.642l21.487 68.323zM63.579 23.492h36.946l21.486 68.323-36.309 0-3.706-14.143-3.706 14.143-36.063 0zM224.427 23.492l0 68.323-40.437 0v-68.323zM224.427 223.708h-40.437v-68.323l40.437 0zM394.511 201.011c-7.81 8.448-17.365 14.793-28.666 19.036-11.339 4.28-23.729 6.42-37.171 6.42-23.016 0-40.907-7.134-53.672-21.401-10.697-11.959-17.032-28.52-19.004-49.681l40.655 0c1.127 10.845 3.616 19.201 7.466 25.069 5.444 8.298 14.399 12.447 26.864 12.447 7.96 0 14.418-1.596 19.374-4.787l3.605-2.478 0-30.251h40.549zM273.425 43.092c12.052-14.906 29.643-22.359 52.771-22.359 21.702 0 38.072 5.369 49.111 16.107 11.076 10.738 17.478 27.559 19.204 50.462h-39.31c-1.126-12.728-3.792-21.42-7.998-26.076-4.205-4.618-10.795-6.927-19.768-6.927-10.926 0-18.867 3.999-23.823 11.996-3.676 5.904-6.03 14.411-7.062 25.52h-40.552c1.854-20.406 7.663-36.647 17.427-48.723z" fill="#000000" fill-rule="nonzero" stroke="none" stroke-width="1" stroke-linecap="butt" stroke-linejoin="miter" stroke-miterlimit="10" stroke-dasharray="" stroke-dashoffset="0" font-family="none" font-weight="none" font-size="none" text-anchor="none" style="mix-blend-mode: normal" data-fill-palette-color="tertiary"></path></g></g><g transform="matrix(1,0,0,1,2.842170943040401e-14,98.99584772420877)"><svg viewBox="0 0 395.5199999999999 49.20830455158245" height="49.20830455158245" width="395.5199999999999"><g><svg viewBox="0 0 395.5199999999999 49.20830455158245" height="49.20830455158245" width="395.5199999999999"><g><svg viewBox="0 0 395.5199999999999 49.20830455158245" height="49.20830455158245" width="395.5199999999999"><g><svg viewBox="0 0 395.5199999999999 49.20830455158245" height="49.20830455158245" width="395.5199999999999"><g id="textblocktransform"><svg viewBox="0 0 395.5199999999999 49.20830455158245" height="49.20830455158245" width="395.5199999999999" id="textblock"><g><svg viewBox="0 0 395.5199999999999 49.20830455158245" height="49.20830455158245" width="395.5199999999999"><g transform="matrix(1,0,0,1,0,0)"><svg width="395.5199999999999" viewBox="0.5400000214576721 -36.90999984741211 380.25 47.30999755859375" height="49.20830455158245" data-palette-color="#ffffff"><path d="M21.73 0L19.82-7.28 10.03-7.28 8.13 0 0.54 0 11.65-35.55 18.21-35.55 29.39 0 21.73 0ZM14.92-25.93L11.6-13.26 18.24-13.26 14.92-25.93ZM40.21-35.55L40.21 0 33.03 0 33.03-35.55 40.21-35.55ZM64.67-26.42L64.67 0 57.73 0 57.73-26.42 64.67-26.42ZM57.41-33.25L57.41-33.25Q57.41-34.86 58.44-35.89 59.47-36.91 61.17-36.91 62.88-36.91 63.91-35.89 64.93-34.86 64.93-33.25L64.93-33.25Q64.93-31.67 63.92-30.62 62.91-29.57 61.17-29.57 59.44-29.57 58.43-30.62 57.41-31.67 57.41-33.25ZM70.03-26.42L76.5-26.42 76.7-23.97Q79.02-26.9 82.83-26.9L82.83-26.9Q86.78-26.9 88.42-23.34L88.42-23.34Q90.69-26.9 94.89-26.9L94.89-26.9Q101.82-26.9 101.99-17.31L101.99-17.31 101.99 0 95.08 0 95.08-16.87Q95.08-19.17 94.45-20.14 93.81-21.12 92.3-21.12L92.3-21.12Q90.37-21.12 89.42-18.75L89.42-18.75 89.47-17.92 89.47 0 82.56 0 82.56-16.82Q82.56-19.09 81.95-20.1 81.34-21.12 79.78-21.12L79.78-21.12Q77.99-21.12 76.94-19.19L76.94-19.19 76.94 0 70.03 0 70.03-26.42ZM126.6 0L119.64 0Q119.35-0.61 119.05-2.05L119.05-2.05Q117.2 0.49 114.03 0.49L114.03 0.49Q110.71 0.49 108.52-1.71 106.34-3.91 106.34-7.4L106.34-7.4Q106.34-11.55 108.98-13.82 111.63-16.09 116.61-16.14L116.61-16.14 118.71-16.14 118.71-18.26Q118.71-20.04 118.1-20.78 117.49-21.51 116.32-21.51L116.32-21.51Q113.73-21.51 113.73-18.48L113.73-18.48 106.82-18.48Q106.82-22.14 109.57-24.52 112.32-26.9 116.52-26.9L116.52-26.9Q120.86-26.9 123.24-24.65 125.62-22.39 125.62-18.19L125.62-18.19 125.62-5.76Q125.67-2.34 126.6-0.42L126.6-0.42 126.6 0ZM115.56-4.93L115.56-4.93Q116.71-4.93 117.52-5.4 118.32-5.86 118.71-6.49L118.71-6.49 118.71-11.99 117.05-11.99Q115.3-11.99 114.28-10.86 113.27-9.74 113.27-7.86L113.27-7.86Q113.27-4.93 115.56-4.93ZM129.79-12.06L129.79-14.01Q129.79-20.51 132.14-23.71 134.48-26.9 138.71-26.9L138.71-26.9Q142.29-26.9 144.25-24.07L144.25-24.07 144.52-26.42 150.74-26.42 150.74 0Q150.74 5.05 147.91 7.73 145.08 10.4 139.78 10.4L139.78 10.4Q137.61 10.4 135.21 9.53 132.82 8.67 131.65 7.32L131.65 7.32 133.97 2.54Q134.95 3.56 136.51 4.21 138.07 4.86 139.46 4.86L139.46 4.86Q141.78 4.86 142.8 3.75 143.81 2.64 143.83 0.17L143.83 0.17 143.83-2.1Q141.86 0.49 138.68 0.49L138.68 0.49Q134.46 0.49 132.15-2.8 129.84-6.08 129.79-12.06L129.79-12.06ZM136.7-14.01L136.7-12.28Q136.7-8.62 137.66-6.95 138.61-5.27 140.68-5.27L140.68-5.27Q142.81-5.27 143.83-6.81L143.83-6.81 143.83-19.43Q142.76-21.12 140.73-21.12L140.73-21.12Q138.68-21.12 137.69-19.43 136.7-17.75 136.7-14.01L136.7-14.01ZM166.44 0.49L166.44 0.49Q161.12 0.49 158.14-2.69 155.16-5.86 155.16-11.77L155.16-11.77 155.16-13.87Q155.16-20.12 157.89-23.51 160.63-26.9 165.73-26.9L165.73-26.9Q170.71-26.9 173.22-23.72 175.74-20.53 175.79-14.28L175.79-14.28 175.79-10.89 162.04-10.89Q162.19-7.96 163.34-6.6 164.48-5.25 166.88-5.25L166.88-5.25Q170.34-5.25 172.66-7.62L172.66-7.62 175.37-3.44Q174.1-1.68 171.69-0.6 169.27 0.49 166.44 0.49ZM162.09-15.72L162.09-15.72 169-15.72 169-16.36Q168.95-18.73 168.22-19.95 167.49-21.17 165.68-21.17 163.87-21.17 163.06-19.87 162.24-18.58 162.09-15.72ZM190.38-12.06L190.38-14.01Q190.38-20.51 192.73-23.71 195.07-26.9 199.29-26.9L199.29-26.9Q202.88-26.9 204.84-24.07L204.84-24.07 205.1-26.42 211.33-26.42 211.33 0Q211.33 5.05 208.5 7.73 205.67 10.4 200.37 10.4L200.37 10.4Q198.2 10.4 195.8 9.53 193.41 8.67 192.24 7.32L192.24 7.32 194.56 2.54Q195.53 3.56 197.1 4.21 198.66 4.86 200.05 4.86L200.05 4.86Q202.37 4.86 203.38 3.75 204.4 2.64 204.42 0.17L204.42 0.17 204.42-2.1Q202.44 0.49 199.27 0.49L199.27 0.49Q195.05 0.49 192.74-2.8 190.43-6.08 190.38-12.06L190.38-12.06ZM197.29-14.01L197.29-12.28Q197.29-8.62 198.24-6.95 199.2-5.27 201.27-5.27L201.27-5.27Q203.4-5.27 204.42-6.81L204.42-6.81 204.42-19.43Q203.35-21.12 201.32-21.12L201.32-21.12Q199.27-21.12 198.28-19.43 197.29-17.75 197.29-14.01L197.29-14.01ZM227.03 0.49L227.03 0.49Q221.7 0.49 218.73-2.69 215.75-5.86 215.75-11.77L215.75-11.77 215.75-13.87Q215.75-20.12 218.48-23.51 221.22-26.9 226.32-26.9L226.32-26.9Q231.3-26.9 233.81-23.72 236.33-20.53 236.38-14.28L236.38-14.28 236.38-10.89 222.63-10.89Q222.78-7.96 223.93-6.6 225.07-5.25 227.47-5.25L227.47-5.25Q230.93-5.25 233.25-7.62L233.25-7.62 235.96-3.44Q234.69-1.68 232.27-0.6 229.86 0.49 227.03 0.49ZM222.68-15.72L222.68-15.72 229.59-15.72 229.59-16.36Q229.54-18.73 228.81-19.95 228.08-21.17 226.27-21.17 224.46-21.17 223.64-19.87 222.83-18.58 222.68-15.72ZM240.11-26.42L246.6-26.42 246.8-23.8Q249.14-26.9 252.93-26.9L252.93-26.9Q259.74-26.9 259.93-17.36L259.93-17.36 259.93 0 253 0 253-16.85Q253-19.09 252.33-20.1 251.66-21.12 249.97-21.12L249.97-21.12Q248.09-21.12 247.04-19.19L247.04-19.19 247.04 0 240.11 0 240.11-26.42ZM275.56 0.49L275.56 0.49Q270.23 0.49 267.26-2.69 264.28-5.86 264.28-11.77L264.28-11.77 264.28-13.87Q264.28-20.12 267.01-23.51 269.75-26.9 274.85-26.9L274.85-26.9Q279.83-26.9 282.34-23.72 284.86-20.53 284.91-14.28L284.91-14.28 284.91-10.89 271.16-10.89Q271.31-7.96 272.46-6.6 273.6-5.25 276-5.25L276-5.25Q279.46-5.25 281.78-7.62L281.78-7.62 284.49-3.44Q283.22-1.68 280.8-0.6 278.39 0.49 275.56 0.49ZM271.21-15.72L271.21-15.72 278.12-15.72 278.12-16.36Q278.07-18.73 277.34-19.95 276.61-21.17 274.8-21.17 272.99-21.17 272.17-19.87 271.36-18.58 271.21-15.72ZM301.92-26.59L301.85-19.75 299.55-19.95Q296.72-19.95 295.72-17.46L295.72-17.46 295.72 0 288.79 0 288.79-26.42 295.3-26.42 295.5-23.56Q297.14-26.9 300.02-26.9L300.02-26.9Q301.19-26.9 301.92-26.59L301.92-26.59ZM324.16 0L317.2 0Q316.91-0.61 316.62-2.05L316.62-2.05Q314.76 0.49 311.59 0.49L311.59 0.49Q308.27 0.49 306.08-1.71 303.9-3.91 303.9-7.4L303.9-7.4Q303.9-11.55 306.54-13.82 309.19-16.09 314.17-16.14L314.17-16.14 316.27-16.14 316.27-18.26Q316.27-20.04 315.66-20.78 315.05-21.51 313.88-21.51L313.88-21.51Q311.29-21.51 311.29-18.48L311.29-18.48 304.38-18.48Q304.38-22.14 307.13-24.52 309.88-26.9 314.08-26.9L314.08-26.9Q318.42-26.9 320.8-24.65 323.18-22.39 323.18-18.19L323.18-18.19 323.18-5.76Q323.23-2.34 324.16-0.42L324.16-0.42 324.16 0ZM313.12-4.93L313.12-4.93Q314.27-4.93 315.08-5.4 315.88-5.86 316.27-6.49L316.27-6.49 316.27-11.99 314.61-11.99Q312.86-11.99 311.84-10.86 310.83-9.74 310.83-7.86L310.83-7.86Q310.83-4.93 313.12-4.93ZM329.31-32.91L336.22-32.91 336.22-26.42 339.76-26.42 339.76-21.22 336.22-21.22 336.22-8.11Q336.22-6.54 336.64-5.96 337.07-5.37 338.29-5.37L338.29-5.37Q339.29-5.37 339.93-5.54L339.93-5.54 339.88-0.17Q338.12 0.49 336.07 0.49L336.07 0.49Q329.38 0.49 329.31-7.18L329.31-7.18 329.31-21.22 326.26-21.22 326.26-26.42 329.31-26.42 329.31-32.91ZM342-12.38L342-14.06Q342-20.07 344.83-23.49 347.67-26.9 352.67-26.9L352.67-26.9Q357.72-26.9 360.56-23.49 363.39-20.07 363.39-14.01L363.39-14.01 363.39-12.33Q363.39-6.3 360.58-2.91 357.77 0.49 352.72 0.49L352.72 0.49Q347.64 0.49 344.82-2.92 342-6.32 342-12.38L342-12.38ZM348.93-14.06L348.93-12.33Q348.93-5.25 352.72-5.25L352.72-5.25Q356.21-5.25 356.48-11.16L356.48-11.16 356.5-14.06Q356.5-17.68 355.5-19.42 354.5-21.17 352.67-21.17L352.67-21.17Q350.91-21.17 349.92-19.42 348.93-17.68 348.93-14.06L348.93-14.06ZM380.79-26.59L380.72-19.75 378.42-19.95Q375.59-19.95 374.59-17.46L374.59-17.46 374.59 0 367.66 0 367.66-26.42 374.18-26.42 374.37-23.56Q376.01-26.9 378.89-26.9L378.89-26.9Q380.06-26.9 380.79-26.59L380.79-26.59Z" opacity="1" transform="matrix(1,0,0,1,0,0)" fill="#000000" class="undefined-text-0" data-fill-palette-color="primary" id="text-0"></path></svg></g></svg></g></svg></g></svg></g></svg></g></svg></g></svg></g></svg></g><defs></defs></svg><rect width="395.52" height="247.2" fill="none" stroke="none" visibility="hidden"></rect></g></svg></g></svg>